<?xml version="1.0" encoding="UTF-8" standalone="no"?>
<svg
   viewBox="0 0 1000 1000"
   version="1.1"
   id="svg4"
   sodipodi:docname="curve.svg"
   inkscape:version="1.2.2 (732a01da63, 2022-12-09)"
   xmlns:inkscape="http://www.inkscape.org/namespaces/inkscape"
   xmlns:sodipodi="http://sodipodi.sourceforge.net/DTD/sodipodi-0.dtd"
   xmlns="http://www.w3.org/2000/svg"
   xmlns:svg="http://www.w3.org/2000/svg">
  <defs
     id="defs8" />
  <sodipodi:namedview
     id="namedview6"
     pagecolor="#ffffff"
     bordercolor="#000000"
     borderopacity="0.25"
     inkscape:showpageshadow="2"
     inkscape:pageopacity="0.0"
     inkscape:pagecheckerboard="0"
     inkscape:deskcolor="#d1d1d1"
     showgrid="false"
     inkscape:zoom="0.43852551"
     inkscape:cx="534.74654"
     inkscape:cy="491.41953"
     inkscape:window-width="915"
     inkscape:window-height="981"
     inkscape:window-x="-8"
     inkscape:window-y="0"
     inkscape:window-maximized="0"
     inkscape:current-layer="svg4" />
  <path
     style="fill:none;stroke:#000000;stroke-width:1.362"
     d="m 50.168119,43.327012 686.449611,21.814087 98.04836,0.698362 63.79932,27.65567 49.71075,95.824109 -5.14382,130.22868 -53.68841,116.00257 -14.24124,155.34729 30.20382,134.25958 -22.30207,57.55167 -32.84056,9.86275 -19.48839,-26.72953 -164.5744,-31.6825 -146.17695,48.00683 -187.97308,-144.83316 -30.94235,-226.86699 -72.81248,-30.73022 -64.00966,48.97317 -22.80369,273.64429 172.67503,95.44693 417.94055,96.10407 -145.73408,24.76017 -148.89195,5.44033 -150.77025,-4.60902 -104.32559,-13.79033 -45.45445,-59.6889 -82.093283,-399.06459 50.168123,-189.27063 136.82214,-70.69144 207.51358,-9.12147 29.6448,9.12147 47.88775,61.56997 15.96258,29.64479 11.40185,38.76628 v 27.36443 l -15.96258,36.4859 -52.44849,34.20554 -18.24296,36.4859 v 41.04664 l 13.68222,25.08406 25.08406,18.24296 50.16812,15.96258 h 43.32701 l 38.76627,-25.08406 34.20554,-52.44849 15.96258,-47.88775 11.40185,-54.72886 25.08406,-54.72885 22.80369,-15.96259"
     id="path8402"
     sodipodi:nodetypes="cccccccccccccccccccccccccc" />
</svg>
